<?xml version="1.0" encoding="UTF-8" standalone="no"?>
<!DOCTYPE svg PUBLIC "-//W3C//DTD SVG 1.1//EN" "http://www.w3.org/Graphics/SVG/1.1/DTD/svg11.dtd">
<svg width="100%" height="100%" viewBox="0 0 380 144" version="1.1" xmlns="http://www.w3.org/2000/svg" xmlns:xlink="http://www.w3.org/1999/xlink" xml:space="preserve" xmlns:serif="http://www.serif.com/" style="fill-rule:evenodd;clip-rule:evenodd;stroke-linejoin:round;stroke-miterlimit:2;">
    <g transform="matrix(1,0,0,1,-16.2228,-473.308)">
        <path d="M16.228,473.308C15.865,520.027 34.749,545.496 67.831,556.198C68.747,556.494 72.604,557.463 73.591,557.659C91.154,561.161 106.784,562.971 121.427,563.918C122.23,563.97 125.376,564.136 126.144,564.185C155.355,566.058 178.834,581.853 196.548,611.647C196.926,612.282 198.778,614.312 199.314,614.63C204.649,617.8 208.897,617.555 212.234,614.448C212.766,613.952 214.483,611.643 214.848,611.097C227.431,592.269 243.042,577.795 261.748,567.769C262.794,567.208 267.541,566.006 268.854,565.937C289.268,564.866 309.683,562.555 330.097,559.528C379.36,550.948 396.486,518.84 395.278,473.308L387.439,473.338C389.164,512.598 377.375,540.897 334.938,549.965C315.472,553.961 291.882,556.89 266.957,558.835C265.73,558.931 260.718,560.273 259.48,560.869C235.373,572.477 220.516,588.307 208.935,605.648C205.881,610.22 204.647,607.676 203.312,606.117C181.462,580.599 165.656,560.68 129.42,556.439C128.419,556.322 124.529,556.028 123.608,555.976C108.051,555.1 92.493,553.424 76.935,550.501C75.586,550.247 70.754,549.338 69.711,549.119C39.845,542.837 23.519,519.317 24.06,473.345L16.228,473.308Z" style="fill:rgb(162,205,58);"/>
    </g>
</svg>
